<?xml version="1.0" encoding="UTF-8" standalone="no"?>
<!DOCTYPE svg PUBLIC "-//W3C//DTD SVG 1.1//EN"
 "http://www.w3.org/Graphics/SVG/1.1/DTD/svg11.dtd">
<!-- Generated by graphviz version 9.0.0 (20230911.1827)
 -->
<!-- Pages: 1 -->
<svg width="278pt" height="332pt"
 viewBox="0.00 0.00 278.00 332.00" xmlns="http://www.w3.org/2000/svg" xmlns:xlink="http://www.w3.org/1999/xlink">
<g id="graph0" class="graph" transform="scale(1 1) rotate(0) translate(4 328)">
<polygon fill="white" stroke="none" points="-4,4 -4,-328 274,-328 274,4 -4,4"/>
<!-- J -->
<g id="node1" class="node">
<title>J</title>
<ellipse fill="none" stroke="black" cx="135" cy="-306" rx="27" ry="18"/>
<text text-anchor="middle" x="135" y="-300.95" font-family="Times,serif" font-size="14.00">J</text>
</g>
<!-- E -->
<g id="node2" class="node">
<title>E</title>
<ellipse fill="none" stroke="black" cx="99" cy="-234" rx="27" ry="18"/>
<text text-anchor="middle" x="99" y="-228.95" font-family="Times,serif" font-size="14.00">E</text>
</g>
<!-- J&#45;&gt;E -->
<g id="edge1" class="edge">
<title>J&#45;&gt;E</title>
<path fill="none" stroke="black" d="M126.65,-288.76C122.42,-280.55 117.19,-270.37 112.42,-261.09"/>
<polygon fill="black" stroke="black" points="115.68,-259.79 108,-252.49 109.46,-262.99 115.68,-259.79"/>
</g>
<!-- S -->
<g id="node5" class="node">
<title>S</title>
<ellipse fill="none" stroke="black" cx="171" cy="-234" rx="27" ry="18"/>
<text text-anchor="middle" x="171" y="-228.95" font-family="Times,serif" font-size="14.00">S</text>
</g>
<!-- J&#45;&gt;S -->
<g id="edge4" class="edge">
<title>J&#45;&gt;S</title>
<path fill="none" stroke="black" d="M143.35,-288.76C147.58,-280.55 152.81,-270.37 157.58,-261.09"/>
<polygon fill="black" stroke="black" points="160.54,-262.99 162,-252.49 154.32,-259.79 160.54,-262.99"/>
</g>
<!-- A -->
<g id="node3" class="node">
<title>A</title>
<ellipse fill="none" stroke="black" cx="27" cy="-162" rx="27" ry="18"/>
<text text-anchor="middle" x="27" y="-156.95" font-family="Times,serif" font-size="14.00">A</text>
</g>
<!-- E&#45;&gt;A -->
<g id="edge2" class="edge">
<title>E&#45;&gt;A</title>
<path fill="none" stroke="black" d="M84.08,-218.5C74.23,-208.92 61.14,-196.19 49.97,-185.34"/>
<polygon fill="black" stroke="black" points="52.59,-183 42.98,-178.54 47.71,-188.02 52.59,-183"/>
</g>
<!-- G -->
<g id="node4" class="node">
<title>G</title>
<ellipse fill="none" stroke="black" cx="99" cy="-162" rx="27" ry="18"/>
<text text-anchor="middle" x="99" y="-156.95" font-family="Times,serif" font-size="14.00">G</text>
</g>
<!-- E&#45;&gt;G -->
<g id="edge3" class="edge">
<title>E&#45;&gt;G</title>
<path fill="none" stroke="black" d="M99,-215.7C99,-208.41 99,-199.73 99,-191.54"/>
<polygon fill="black" stroke="black" points="102.5,-191.62 99,-181.62 95.5,-191.62 102.5,-191.62"/>
</g>
<!-- R -->
<g id="node6" class="node">
<title>R</title>
<ellipse fill="none" stroke="black" cx="171" cy="-162" rx="27" ry="18"/>
<text text-anchor="middle" x="171" y="-156.95" font-family="Times,serif" font-size="14.00">R</text>
</g>
<!-- S&#45;&gt;R -->
<g id="edge5" class="edge">
<title>S&#45;&gt;R</title>
<path fill="none" stroke="black" d="M171,-215.7C171,-208.41 171,-199.73 171,-191.54"/>
<polygon fill="black" stroke="black" points="174.5,-191.62 171,-181.62 167.5,-191.62 174.5,-191.62"/>
</g>
<!-- U -->
<g id="node9" class="node">
<title>U</title>
<ellipse fill="none" stroke="black" cx="243" cy="-162" rx="27" ry="18"/>
<text text-anchor="middle" x="243" y="-156.95" font-family="Times,serif" font-size="14.00">U</text>
</g>
<!-- S&#45;&gt;U -->
<g id="edge8" class="edge">
<title>S&#45;&gt;U</title>
<path fill="none" stroke="black" d="M185.92,-218.5C195.77,-208.92 208.86,-196.19 220.03,-185.34"/>
<polygon fill="black" stroke="black" points="222.29,-188.02 227.02,-178.54 217.41,-183 222.29,-188.02"/>
</g>
<!-- N -->
<g id="node7" class="node">
<title>N</title>
<ellipse fill="none" stroke="black" cx="171" cy="-90" rx="27" ry="18"/>
<text text-anchor="middle" x="171" y="-84.95" font-family="Times,serif" font-size="14.00">N</text>
</g>
<!-- R&#45;&gt;N -->
<g id="edge6" class="edge">
<title>R&#45;&gt;N</title>
<path fill="none" stroke="black" d="M171,-143.7C171,-136.41 171,-127.73 171,-119.54"/>
<polygon fill="black" stroke="black" points="174.5,-119.62 171,-109.62 167.5,-119.62 174.5,-119.62"/>
</g>
<!-- L -->
<g id="node8" class="node">
<title>L</title>
<ellipse fill="none" stroke="black" cx="171" cy="-18" rx="27" ry="18"/>
<text text-anchor="middle" x="171" y="-12.95" font-family="Times,serif" font-size="14.00">L</text>
</g>
<!-- N&#45;&gt;L -->
<g id="edge7" class="edge">
<title>N&#45;&gt;L</title>
<path fill="none" stroke="black" d="M171,-71.7C171,-64.41 171,-55.73 171,-47.54"/>
<polygon fill="black" stroke="black" points="174.5,-47.62 171,-37.62 167.5,-47.62 174.5,-47.62"/>
</g>
</g>
</svg>
