<?xml version="1.0" encoding="UTF-8" standalone="no"?>
<!DOCTYPE svg PUBLIC "-//W3C//DTD SVG 1.1//EN"
 "http://www.w3.org/Graphics/SVG/1.1/DTD/svg11.dtd">
<!-- Generated by graphviz version 9.0.0 (20230911.1827)
 -->
<!-- Pages: 1 -->
<svg width="206pt" height="260pt"
 viewBox="0.00 0.00 206.00 260.00" xmlns="http://www.w3.org/2000/svg" xmlns:xlink="http://www.w3.org/1999/xlink">
<g id="graph0" class="graph" transform="scale(1 1) rotate(0) translate(4 256)">
<polygon fill="white" stroke="none" points="-4,4 -4,-256 202,-256 202,4 -4,4"/>
<!-- J -->
<g id="node1" class="node">
<title>J</title>
<ellipse fill="none" stroke="black" cx="63" cy="-234" rx="27" ry="18"/>
<text text-anchor="middle" x="63" y="-228.95" font-family="Times,serif" font-size="14.00">J</text>
</g>
<!-- E -->
<g id="node2" class="node">
<title>E</title>
<ellipse fill="none" stroke="black" cx="27" cy="-162" rx="27" ry="18"/>
<text text-anchor="middle" x="27" y="-156.95" font-family="Times,serif" font-size="14.00">E</text>
</g>
<!-- J&#45;&gt;E -->
<g id="edge1" class="edge">
<title>J&#45;&gt;E</title>
<path fill="none" stroke="black" d="M54.65,-216.76C50.42,-208.55 45.19,-198.37 40.42,-189.09"/>
<polygon fill="black" stroke="black" points="43.68,-187.79 36,-180.49 37.46,-190.99 43.68,-187.79"/>
</g>
<!-- S -->
<g id="node4" class="node">
<title>S</title>
<ellipse fill="none" stroke="black" cx="99" cy="-162" rx="27" ry="18"/>
<text text-anchor="middle" x="99" y="-156.95" font-family="Times,serif" font-size="14.00">S</text>
</g>
<!-- J&#45;&gt;S -->
<g id="edge3" class="edge">
<title>J&#45;&gt;S</title>
<path fill="none" stroke="black" d="M71.35,-216.76C75.58,-208.55 80.81,-198.37 85.58,-189.09"/>
<polygon fill="black" stroke="black" points="88.54,-190.99 90,-180.49 82.32,-187.79 88.54,-190.99"/>
</g>
<!-- A -->
<g id="node3" class="node">
<title>A</title>
<ellipse fill="none" stroke="black" cx="27" cy="-90" rx="27" ry="18"/>
<text text-anchor="middle" x="27" y="-84.95" font-family="Times,serif" font-size="14.00">A</text>
</g>
<!-- E&#45;&gt;A -->
<g id="edge2" class="edge">
<title>E&#45;&gt;A</title>
<path fill="none" stroke="black" d="M27,-143.7C27,-136.41 27,-127.73 27,-119.54"/>
<polygon fill="black" stroke="black" points="30.5,-119.62 27,-109.62 23.5,-119.62 30.5,-119.62"/>
</g>
<!-- R -->
<g id="node5" class="node">
<title>R</title>
<ellipse fill="none" stroke="black" cx="99" cy="-90" rx="27" ry="18"/>
<text text-anchor="middle" x="99" y="-84.95" font-family="Times,serif" font-size="14.00">R</text>
</g>
<!-- S&#45;&gt;R -->
<g id="edge4" class="edge">
<title>S&#45;&gt;R</title>
<path fill="none" stroke="black" d="M99,-143.7C99,-136.41 99,-127.73 99,-119.54"/>
<polygon fill="black" stroke="black" points="102.5,-119.62 99,-109.62 95.5,-119.62 102.5,-119.62"/>
</g>
<!-- U -->
<g id="node7" class="node">
<title>U</title>
<ellipse fill="none" stroke="black" cx="171" cy="-90" rx="27" ry="18"/>
<text text-anchor="middle" x="171" y="-84.95" font-family="Times,serif" font-size="14.00">U</text>
</g>
<!-- S&#45;&gt;U -->
<g id="edge6" class="edge">
<title>S&#45;&gt;U</title>
<path fill="none" stroke="black" d="M113.92,-146.5C123.77,-136.92 136.86,-124.19 148.03,-113.34"/>
<polygon fill="black" stroke="black" points="150.29,-116.02 155.02,-106.54 145.41,-111 150.29,-116.02"/>
</g>
<!-- N -->
<g id="node6" class="node">
<title>N</title>
<ellipse fill="none" stroke="black" cx="99" cy="-18" rx="27" ry="18"/>
<text text-anchor="middle" x="99" y="-12.95" font-family="Times,serif" font-size="14.00">N</text>
</g>
<!-- R&#45;&gt;N -->
<g id="edge5" class="edge">
<title>R&#45;&gt;N</title>
<path fill="none" stroke="black" d="M99,-71.7C99,-64.41 99,-55.73 99,-47.54"/>
<polygon fill="black" stroke="black" points="102.5,-47.62 99,-37.62 95.5,-47.62 102.5,-47.62"/>
</g>
</g>
</svg>
